<svg width="173" height="69" viewBox="0 0 173 69" fill="none" xmlns="http://www.w3.org/2000/svg">
<g clip-path="url(#clip0_333_1153)">
<path d="M1.07876 15.6502L20.7497 62.0191C20.7497 62.0191 29.9542 76.3759 43.0097 62.0191L44.4366 59.7222C44.4366 59.7222 39.6989 60.7284 35.8237 54.2673C31.9485 47.8061 11.9901 0.576172 11.9901 0.576172C11.9901 0.576172 -1.2182 2.72939 1.07876 15.6502Z" fill="url(#paint0_linear_333_1153)"/>
<path d="M52.665 50.4921L64.7444 22.3551L61.5865 21.2006C61.5865 21.2006 59.4318 20.0521 61.4427 18.4769C63.4537 16.9017 77.6652 6.27031 77.6652 6.27031C77.6652 6.27031 79.9622 3.97335 80.6794 6.84531C81.3967 9.71727 84.9162 26.4815 84.9162 26.4815C84.9162 26.4815 86.4294 29.3837 83.6966 28.8087C80.9639 28.2337 83.1231 28.6665 83.1231 28.6665L79.7261 27.173L64.7459 62.9771C64.7459 62.9771 47.6201 67.1549 52.665 50.4921Z" fill="url(#paint1_linear_333_1153)"/>
<path d="M83.697 28.8055C82.8542 28.6254 82.4744 28.5422 82.3579 28.5119C82.5092 28.5346 83.0373 28.6451 83.1145 28.6633L79.7265 27.1713L78.914 29.1127C76.7956 29.9661 70.9684 32.8305 65.9932 40.0921C61.7821 46.234 55.7038 50.2302 52.2235 52.1595C52.3476 51.6268 52.4974 51.073 52.6775 50.495L64.7554 22.3504L61.5899 21.1944C61.5899 21.1944 59.4337 20.0474 61.4462 18.4707C63.4587 16.894 77.6671 6.26864 77.6671 6.26864C77.6671 6.26864 79.9656 3.9747 80.6828 6.84515C81.4001 9.7156 84.9197 26.4813 84.9197 26.4813C84.9197 26.4813 86.4253 29.3775 83.697 28.8055Z" fill="url(#paint2_linear_333_1153)"/>
<path d="M78.7912 29.2129L64.6236 63.0696C64.6236 63.0696 48.675 66.9569 52.0962 52.2536C55.5765 50.3183 61.6593 46.3281 65.8659 40.1863C70.8472 32.9307 76.6728 30.0648 78.7912 29.2129Z" fill="url(#paint3_linear_333_1153)"/>
<path d="M24.4481 19.4482L44.1675 61.0599C45.5189 63.9605 47.9117 66.2468 50.8708 67.465C54.4781 68.9131 59.4715 68.9585 64.7267 62.9619C64.7267 62.9619 57.6905 59.9356 55.0546 53.1264L44.5791 31.0072C44.5791 31.0072 40.6509 19.763 24.4481 19.4482Z" fill="url(#paint4_linear_333_1153)"/>
</g>
<path d="M100.003 57.7251L97.1883 47.2857L94.3379 57.7251C94.1162 58.5168 93.9381 59.0869 93.8035 59.4353C93.6768 59.7757 93.4512 60.0845 93.1265 60.3616C92.8019 60.6308 92.3704 60.7654 91.832 60.7654C91.3965 60.7654 91.0363 60.6823 90.7512 60.516C90.4741 60.3577 90.2485 60.132 90.0743 59.8391C89.9001 59.5382 89.7576 59.1859 89.6467 58.7821C89.5359 58.3703 89.4369 57.9903 89.3498 57.6419L86.452 45.9199C86.2778 45.239 86.1907 44.7204 86.1907 44.3641C86.1907 43.9128 86.3491 43.5327 86.6658 43.2239C86.9825 42.9151 87.3744 42.7608 87.8415 42.7608C88.4828 42.7608 88.9144 42.9666 89.1361 43.3783C89.3577 43.79 89.5517 44.3878 89.718 45.1717L91.9983 55.3379L94.5517 45.8249C94.7417 45.0965 94.912 44.5422 95.0624 44.1622C95.2128 43.7821 95.4583 43.4535 95.7987 43.1764C96.1392 42.8993 96.6024 42.7608 97.1883 42.7608C97.7821 42.7608 98.2413 42.9072 98.5659 43.2002C98.8985 43.4852 99.1281 43.798 99.2548 44.1384C99.3814 44.4789 99.5517 45.041 99.7655 45.8249L102.343 55.3379L104.623 45.1717C104.734 44.6412 104.837 44.2255 104.932 43.9246C105.035 43.6238 105.205 43.3546 105.442 43.117C105.688 42.8795 106.04 42.7608 106.499 42.7608C106.959 42.7608 107.347 42.9151 107.663 43.2239C107.988 43.5248 108.15 43.9049 108.15 44.3641C108.15 44.6887 108.063 45.2073 107.889 45.9199L104.991 57.6419C104.793 58.4337 104.627 59.0156 104.492 59.3878C104.366 59.752 104.144 60.0726 103.827 60.3497C103.518 60.6269 103.079 60.7654 102.509 60.7654C101.971 60.7654 101.539 60.6308 101.214 60.3616C100.89 60.0924 100.664 59.7915 100.537 59.459C100.411 59.1186 100.233 58.5406 100.003 57.7251ZM122.278 54.236C122.278 55.1924 122.129 56.0744 121.831 56.8819C121.533 57.6894 121.102 58.3832 120.537 58.9633C119.973 59.5434 119.299 59.9903 118.515 60.3039C117.731 60.6096 116.849 60.7625 115.869 60.7625C114.897 60.7625 114.023 60.6057 113.246 60.2921C112.47 59.9785 111.796 59.5317 111.224 58.9515C110.659 58.3636 110.228 57.6737 109.93 56.8819C109.64 56.0822 109.495 55.2003 109.495 54.236C109.495 53.2639 109.644 52.3741 109.942 51.5666C110.24 50.7591 110.667 50.0693 111.224 49.497C111.78 48.9247 112.455 48.4857 113.246 48.1799C114.038 47.8663 114.912 47.7095 115.869 47.7095C116.841 47.7095 117.723 47.8663 118.515 48.1799C119.307 48.4935 119.985 48.9404 120.549 49.5205C121.114 50.1006 121.541 50.7905 121.831 51.5901C122.129 52.3898 122.278 53.2717 122.278 54.236ZM119.056 54.236C119.056 52.9268 118.766 51.9077 118.185 51.1786C117.613 50.4495 116.841 50.0849 115.869 50.0849C115.242 50.0849 114.689 50.2496 114.211 50.5788C113.733 50.9003 113.364 51.3785 113.105 52.0135C112.847 52.6485 112.717 53.3893 112.717 54.236C112.717 55.0749 112.843 55.8079 113.094 56.435C113.352 57.0622 113.717 57.5443 114.187 57.8814C114.665 58.2107 115.226 58.3753 115.869 58.3753C116.841 58.3753 117.613 58.0108 118.185 57.2817C118.766 56.5448 119.056 55.5296 119.056 54.236ZM126.817 49.7086L128.91 56.8819L130.815 50.2143C131.019 49.5166 131.168 49.0423 131.262 48.7914C131.364 48.5327 131.548 48.2897 131.815 48.0623C132.089 47.8271 132.461 47.7095 132.932 47.7095C133.41 47.7095 133.782 47.8271 134.049 48.0623C134.323 48.2897 134.515 48.5405 134.625 48.8149C134.735 49.0815 134.888 49.5479 135.084 50.2143L136.989 56.8819L139.105 49.7086C139.247 49.1912 139.36 48.8188 139.446 48.5915C139.533 48.3563 139.678 48.1525 139.882 47.98C140.085 47.7997 140.379 47.7095 140.764 47.7095C141.148 47.7095 141.481 47.8428 141.763 48.1094C142.045 48.3759 142.186 48.6895 142.186 49.0501C142.186 49.3794 142.065 49.8772 141.822 50.5436L139.2 58.2342C138.972 58.8849 138.796 59.3553 138.67 59.6453C138.545 59.9354 138.345 60.1941 138.071 60.4215C137.804 60.6488 137.436 60.7625 136.965 60.7625C136.479 60.7625 136.095 60.641 135.813 60.3979C135.538 60.1549 135.335 59.857 135.201 59.5042C135.068 59.1515 134.923 58.6928 134.766 58.1284L132.932 51.8724L131.156 58.1284C130.921 58.9986 130.666 59.6571 130.392 60.104C130.117 60.543 129.635 60.7625 128.945 60.7625C128.593 60.7625 128.291 60.6919 128.04 60.5508C127.797 60.4175 127.593 60.2255 127.428 59.9746C127.264 59.7159 127.119 59.4141 126.993 59.0691C126.868 58.7164 126.77 58.438 126.699 58.2342L124.1 50.5436C123.842 49.8223 123.712 49.3245 123.712 49.0501C123.712 48.7052 123.85 48.3955 124.124 48.1211C124.398 47.8467 124.735 47.7095 125.135 47.7095C125.668 47.7095 126.029 47.8624 126.217 48.1682C126.405 48.4661 126.605 48.9796 126.817 49.7086ZM151.323 53.7539H148.125V58.634C148.125 59.3318 147.96 59.8609 147.631 60.2216C147.302 60.5822 146.886 60.7625 146.385 60.7625C145.859 60.7625 145.436 60.5861 145.114 60.2333C144.793 59.8727 144.632 59.3474 144.632 58.6576V45.3694C144.632 44.6011 144.809 44.0524 145.162 43.7231C145.514 43.3938 146.075 43.2292 146.843 43.2292H151.323C152.648 43.2292 153.668 43.3311 154.381 43.5349C155.086 43.7309 155.694 44.0563 156.204 44.511C156.721 44.9657 157.113 45.5223 157.38 46.1808C157.646 46.8393 157.779 47.5802 157.779 48.4033C157.779 50.1594 157.238 51.4922 156.157 52.4015C155.075 53.3031 153.464 53.7539 151.323 53.7539ZM150.477 45.8516H148.125V51.1198H150.477C151.3 51.1198 151.986 51.0335 152.535 50.8611C153.091 50.6886 153.515 50.4064 153.805 50.0144C154.095 49.6224 154.24 49.1089 154.24 48.4739C154.24 47.7135 154.016 47.0941 153.57 46.6159C153.068 46.1063 152.037 45.8516 150.477 45.8516ZM168.516 55.0239H162.236C162.244 55.753 162.389 56.3958 162.671 56.9524C162.961 57.5091 163.342 57.9285 163.812 58.2107C164.29 58.4929 164.815 58.634 165.388 58.634C165.772 58.634 166.121 58.5909 166.434 58.5047C166.756 58.4106 167.065 58.2695 167.363 58.0813C167.661 57.8854 167.936 57.6776 168.186 57.4581C168.437 57.2386 168.763 56.9407 169.162 56.5644C169.327 56.4233 169.562 56.3527 169.868 56.3527C170.197 56.3527 170.464 56.4429 170.668 56.6232C170.872 56.8035 170.973 57.0583 170.973 57.3875C170.973 57.6776 170.86 58.0186 170.632 58.4106C170.405 58.7947 170.06 59.1671 169.598 59.5278C169.143 59.8805 168.567 60.1745 167.869 60.4097C167.179 60.6449 166.383 60.7625 165.482 60.7625C163.42 60.7625 161.817 60.1745 160.672 58.9986C159.528 57.8226 158.955 56.2273 158.955 54.2125C158.955 53.2639 159.096 52.3859 159.379 51.5784C159.661 50.7631 160.072 50.0653 160.613 49.4852C161.154 48.9051 161.821 48.4621 162.613 48.1564C163.404 47.8428 164.282 47.686 165.247 47.686C166.501 47.686 167.575 47.9526 168.469 48.4857C169.37 49.0109 170.044 49.693 170.491 50.5318C170.938 51.3706 171.162 52.2252 171.162 53.0954C171.162 53.9028 170.93 54.4281 170.468 54.6711C170.005 54.9063 169.355 55.0239 168.516 55.0239ZM162.236 53.2012H168.057C167.979 52.1036 167.681 51.2844 167.163 50.7435C166.654 50.1947 165.98 49.9203 165.141 49.9203C164.341 49.9203 163.683 50.1986 163.165 50.7552C162.656 51.304 162.346 52.1193 162.236 53.2012Z" fill="#387CD0"/>
<defs>
<linearGradient id="paint0_linear_333_1153" x1="0.81093" y1="34.4889" x2="44.4335" y2="34.4889" gradientUnits="userSpaceOnUse">
<stop stop-color="#3260BE"/>
<stop offset="0.48" stop-color="#336AC4"/>
<stop offset="1" stop-color="#3F93DF"/>
</linearGradient>
<linearGradient id="paint1_linear_333_1153" x1="51.7344" y1="34.421" x2="85.3293" y2="34.421" gradientUnits="userSpaceOnUse">
<stop stop-color="#FA6F75"/>
<stop offset="0.4" stop-color="#FA6F75"/>
<stop offset="1" stop-color="#F89160"/>
</linearGradient>
<linearGradient id="paint2_linear_333_1153" x1="75.4837" y1="38.243" x2="58.5576" y2="21.3184" gradientUnits="userSpaceOnUse">
<stop stop-color="#F89160"/>
<stop offset="1" stop-color="#FA6F75"/>
</linearGradient>
<linearGradient id="paint3_linear_333_1153" x1="51.6151" y1="46.3766" x2="78.7912" y2="46.3766" gradientUnits="userSpaceOnUse">
<stop stop-color="#3260BE"/>
<stop offset="0.32" stop-color="#3470C8"/>
<stop offset="1" stop-color="#3F93DF"/>
</linearGradient>
<linearGradient id="paint4_linear_333_1153" x1="24.4481" y1="43.8599" x2="64.7267" y2="43.8599" gradientUnits="userSpaceOnUse">
<stop stop-color="#3260BE"/>
<stop offset="0.32" stop-color="#3470C8"/>
<stop offset="1" stop-color="#3F93DF"/>
</linearGradient>
<clipPath id="clip0_333_1153">
<rect width="85" height="68" fill="white" transform="translate(0.775024 0.576172)"/>
</clipPath>
</defs>
</svg>
